<svg width="31" height="31" viewBox="0 0 31 31" fill="none" xmlns="http://www.w3.org/2000/svg">
<path d="M15.5 0.916656C7.45002 0.916656 0.916687 7.44999 0.916687 15.5C0.916687 23.55 7.45002 30.0833 15.5 30.0833C23.55 30.0833 30.0834 23.55 30.0834 15.5C30.0834 7.44999 23.55 0.916656 15.5 0.916656ZM15.5 5.29166C17.9209 5.29166 19.875 7.24582 19.875 9.66666C19.875 12.0875 17.9209 14.0417 15.5 14.0417C13.0792 14.0417 11.125 12.0875 11.125 9.66666C11.125 7.24582 13.0792 5.29166 15.5 5.29166ZM15.5 26C11.8542 26 8.63127 24.1333 6.75002 21.3042C6.79377 18.4021 12.5834 16.8125 15.5 16.8125C18.4021 16.8125 24.2063 18.4021 24.25 21.3042C22.3688 24.1333 19.1459 26 15.5 26Z" fill="#667080"/>
</svg>
